<svg width="500" height="500" viewBox="0 0 500 500" fill="none" xmlns="http://www.w3.org/2000/svg">
<rect width="500" height="500" fill="#FFEFD2"/>
<g clip-path="url(#clip0_300_19)">
<rect x="49" y="49" width="403" height="399" rx="8" fill="#FFEFD2"/>
<path d="M50 48H182.673V48C182.673 121.273 123.273 180.673 50 180.673V180.673V48Z" fill="#88C8C1"/>
<path d="M318.337 180.673L318.337 48V48C391.61 48 451.01 107.4 451.01 180.673V180.673L318.337 180.673Z" fill="#88C8C1"/>
<path d="M318 314H452V314C452 388.006 392.006 448 318 448V448V314Z" fill="#D53D46"/>
<path d="M183.663 181.663H316.337V181.663C316.337 254.937 256.937 314.337 183.663 314.337V314.337V181.663Z" fill="#88C8C1"/>
<path d="M317 183L183 183L183 48L317 183Z" fill="#FFBC58"/>
<path d="M50.5 314.5L50.5 310.5C50.5 238.703 108.703 180.5 180.5 180.5L183.5 180.5L183.5 314.5L50.5 314.5Z" fill="#FFBC58"/>
<path d="M452 314L448 314C376.203 314 318 255.797 318 184L318 181L452 181L452 314Z" fill="#88C8C1"/>
<path fill-rule="evenodd" clip-rule="evenodd" d="M183.663 314.347C256.937 314.347 316.337 254.947 316.337 181.673C316.337 108.4 256.937 49 183.663 49L183.663 314.347Z" fill="#FFBC58"/>
<path d="M184 314H187C258.797 314 317 372.203 317 444V448H184L184 314Z" fill="#88C8C1"/>
<path d="M184.5 447.5L184.5 444.5C184.5 372.703 126.297 314.5 54.5 314.5L50.5 314.5L50.5 447.5L184.5 447.5Z" fill="#D53D46"/>
</g>
<defs>
<clipPath id="clip0_300_19">
<rect x="48" y="48" width="404" height="400" rx="16" fill="white"/>
</clipPath>
</defs>
</svg>
